solid Motorhalter
facet normal 0.0 -1.0 0.0
  outer loop
    vertex 65.999923165 -27.834341179455425 21.306015217165722
    vertex 64.899923165 -27.834341179455425 18.306015217165722
    vertex 65.999923165 -27.834341179455425 18.306015217165722
  endloop
endfacet
facet normal 0.0 -1.0 0.0
  outer loop
    vertex 64.899923165 -27.834341179455425 18.306015217165722
    vertex 65.999923165 -27.834341179455425 21.306015217165722
    vertex 64.899923165 -27.834341179455425 21.306015217165722
  endloop
endfacet
facet normal 0.3681245526846585 0.9297764858882592 0.0
  outer loop
    vertex 75.41064220575495 -30.938695895282784 21.306015217165722
    vertex 75.48827473834284 -30.963920234189025 18.306015217165722
    vertex 75.41064220575495 -30.938695895282784 18.306015217165722
  endloop
endfacet
facet normal 0.24868988716484744 0.9685831611286332 -9.120094183863448e-20
  outer loop
    vertex 75.48827473834284 -30.963920234189025 18.306015217165722
    vertex 75.41064220575495 -30.938695895282784 21.306015217165722
    vertex 75.48827473834284 -30.963920234189025 21.306015217165722
  endloop
endfacet
facet normal 0.4817536741017054 0.876306680043869 -1.8975255390414666e-30
  outer loop
    vertex 75.33678327683387 -30.90394052148393 21.306015217165722
    vertex 75.41064220575495 -30.938695895282784 18.306015217165722
    vertex 75.33678327683387 -30.90394052148393 18.306015217165722
  endloop
endfacet
facet normal 0.3681245526846585 0.9297764858882592 0.0
  outer loop
    vertex 75.41064220575495 -30.938695895282784 18.306015217165722
    vertex 75.33678327683387 -30.90394052148393 21.306015217165722
    vertex 75.41064220575495 -30.938695895282784 21.306015217165722
  endloop
endfacet
facet normal 0.5877852522924845 0.8090169943749393 -5.519148414378042e-30
  outer loop
    vertex 75.26786275100989 -30.86020222579913 21.306015217165722
    vertex 75.33678327683387 -30.90394052148393 18.306015217165722
    vertex 75.26786275100989 -30.86020222579913 18.306015217165722
  endloop
endfacet
facet normal 0.4817536741017054 0.876306680043869 -1.8975255390414666e-30
  outer loop
    vertex 75.33678327683387 -30.90394052148393 18.306015217165722
    vertex 75.26786275100989 -30.86020222579913 21.306015217165722
    vertex 75.33678327683387 -30.90394052148393 21.306015217165722
  endloop
endfacet
facet normal 0.0 -1.0 0.0
  outer loop
    vertex 77.649923165 -33.83434117945542 21.306015217165722
    vertex 65.999923165 -33.83434117945542 18.306015217165722
    vertex 77.649923165 -33.83434117945542 18.306015217165722
  endloop
endfacet
facet normal 0.0 -1.0 0.0
  outer loop
    vertex 65.999923165 -33.83434117945542 18.306015217165722
    vertex 77.649923165 -33.83434117945542 21.306015217165722
    vertex 65.999923165 -33.83434117945542 21.306015217165722
  endloop
endfacet
facet normal 0.0 1.0 0.0
  outer loop
    vertex 62.549923165 -25.83434117945542 21.306015217165722
    vertex 77.649923165 -25.83434117945542 18.306015217165722
    vertex 62.549923165 -25.83434117945542 18.306015217165722
  endloop
endfacet
facet normal 0.0 1.0 0.0
  outer loop
    vertex 77.649923165 -25.83434117945542 18.306015217165722
    vertex 62.549923165 -25.83434117945542 21.306015217165722
    vertex 77.649923165 -25.83434117945542 21.306015217165722
  endloop
endfacet
facet normal 1.0 0.0 0.0
  outer loop
    vertex 77.649923165 -25.83434117945542 18.306015217165722
    vertex 77.649923165 -33.83434117945542 21.306015217165722
    vertex 77.649923165 -33.83434117945542 18.306015217165722
  endloop
endfacet
facet normal 1.0 0.0 0.0
  outer loop
    vertex 77.649923165 -33.83434117945542 21.306015217165722
    vertex 77.649923165 -25.83434117945542 18.306015217165722
    vertex 77.649923165 -25.83434117945542 21.306015217165722
  endloop
endfacet
facet normal 0.6845471059286753 0.7289686274214242 -6.203122346161385e-30
  outer loop
    vertex 75.20496754614635 -30.808170787279337 21.306015217165722
    vertex 75.26786275100989 -30.86020222579913 18.306015217165722
    vertex 75.20496754614635 -30.808170787279337 18.306015217165722
  endloop
endfacet
facet normal 0.5877852522924845 0.8090169943749393 -5.519148414378042e-30
  outer loop
    vertex 75.26786275100989 -30.86020222579913 18.306015217165722
    vertex 75.20496754614635 -30.808170787279337 21.306015217165722
    vertex 75.26786275100989 -30.86020222579913 21.306015217165722
  endloop
endfacet
facet normal -1.0 0.0 0.0
  outer loop
    vertex 65.999923165 -27.834341179455425 21.306015217165722
    vertex 65.999923165 -33.83434117945542 18.306015217165722
    vertex 65.999923165 -33.83434117945542 21.306015217165722
  endloop
endfacet
facet normal -1.0 0.0 0.0
  outer loop
    vertex 65.999923165 -33.83434117945542 18.306015217165722
    vertex 65.999923165 -27.834341179455425 21.306015217165722
    vertex 65.999923165 -27.834341179455425 18.306015217165722
  endloop
endfacet
facet normal 0.7705132427757959 0.6374239897486815 -2.5814994708248405e-30
  outer loop
    vertex 75.14908955719572 -30.74866677279207 18.306015217165722
    vertex 75.20496754614635 -30.808170787279337 21.306015217165722
    vertex 75.20496754614635 -30.808170787279337 18.306015217165722
  endloop
endfacet
facet normal 0.6845471059286753 0.7289686274214242 -6.203122346161385e-30
  outer loop
    vertex 75.20496754614635 -30.808170787279337 21.306015217165722
    vertex 75.14908955719572 -30.74866677279207 18.306015217165722
    vertex 75.14908955719572 -30.74866677279207 21.306015217165722
  endloop
endfacet
facet normal 0.8443279255020464 0.5358267949789476 0.0
  outer loop
    vertex 75.10111001342368 -30.682628596191766 18.306015217165722
    vertex 75.14908955719572 -30.74866677279207 21.306015217165722
    vertex 75.14908955719572 -30.74866677279207 18.306015217165722
  endloop
endfacet
facet normal 0.7705132427757959 0.6374239897486815 -2.5814994708248405e-30
  outer loop
    vertex 75.14908955719572 -30.74866677279207 21.306015217165722
    vertex 75.10111001342368 -30.682628596191766 18.306015217165722
    vertex 75.10111001342368 -30.682628596191766 21.306015217165722
  endloop
endfacet
facet normal 0.9048270524660076 0.4257792915650981 -2.2626720119215597e-19
  outer loop
    vertex 75.06178558089708 -30.61109771897271 18.306015217165722
    vertex 75.10111001342368 -30.682628596191766 21.306015217165722
    vertex 75.10111001342368 -30.682628596191766 18.306015217165722
  endloop
endfacet
facet normal 0.8443279255020464 0.5358267949789476 0.0
  outer loop
    vertex 75.10111001342368 -30.682628596191766 21.306015217165722
    vertex 75.06178558089708 -30.61109771897271 18.306015217165722
    vertex 75.06178558089708 -30.61109771897271 21.306015217165722
  endloop
endfacet
facet normal 0.9510565162951425 0.3090169943749816 -1.0841167122686868e-19
  outer loop
    vertex 75.03173642940814 -30.535202225799132 18.306015217165722
    vertex 75.06178558089708 -30.61109771897271 21.306015217165722
    vertex 75.06178558089708 -30.61109771897271 18.306015217165722
  endloop
endfacet
facet normal 0.9048270524660076 0.4257792915650981 -2.2626720119215597e-19
  outer loop
    vertex 75.06178558089708 -30.61109771897271 21.306015217165722
    vertex 75.03173642940814 -30.535202225799132 18.306015217165722
    vertex 75.03173642940814 -30.535202225799132 21.306015217165722
  endloop
endfacet
facet normal 0.9822872507286887 0.18738131458572466 1.1785552996551032e-19
  outer loop
    vertex 75.01143645202635 -30.45613903393614 18.306015217165722
    vertex 75.03173642940814 -30.535202225799132 21.306015217165722
    vertex 75.03173642940814 -30.535202225799132 18.306015217165722
  endloop
endfacet
facet normal 0.9510565162951425 0.3090169943749816 -1.0841167122686868e-19
  outer loop
    vertex 75.03173642940814 -30.535202225799132 21.306015217165722
    vertex 75.01143645202635 -30.45613903393614 18.306015217165722
    vertex 75.01143645202635 -30.45613903393614 21.306015217165722
  endloop
endfacet
facet normal 0.9980267284282711 0.06279051952932257 2.219215367796903e-31
  outer loop
    vertex 75.00120579152161 -30.375155017149474 18.306015217165722
    vertex 75.01143645202635 -30.45613903393614 21.306015217165722
    vertex 75.01143645202635 -30.45613903393614 18.306015217165722
  endloop
endfacet
facet normal 0.9822872507286887 0.18738131458572466 1.1785552996551032e-19
  outer loop
    vertex 75.01143645202635 -30.45613903393614 21.306015217165722
    vertex 75.00120579152161 -30.375155017149474 18.306015217165722
    vertex 75.00120579152161 -30.375155017149474 21.306015217165722
  endloop
endfacet
facet normal 0.9980267284282711 -0.06279051952932257 2.219215367796903e-31
  outer loop
    vertex 75.00120579152161 -30.293527341761365 18.306015217165722
    vertex 75.00120579152161 -30.375155017149474 21.306015217165722
    vertex 75.00120579152161 -30.375155017149474 18.306015217165722
  endloop
endfacet
facet normal 0.9980267284282711 0.06279051952932257 2.219215367796903e-31
  outer loop
    vertex 75.00120579152161 -30.375155017149474 21.306015217165722
    vertex 75.00120579152161 -30.293527341761365 18.306015217165722
    vertex 75.00120579152161 -30.293527341761365 21.306015217165722
  endloop
endfacet
facet normal 0.9822872507286887 -0.18738131458572466 1.1785552996551032e-19
  outer loop
    vertex 75.01143645202635 -30.212543324974696 18.306015217165722
    vertex 75.00120579152161 -30.293527341761365 21.306015217165722
    vertex 75.00120579152161 -30.293527341761365 18.306015217165722
  endloop
endfacet
facet normal 0.9980267284282711 -0.06279051952932257 2.219215367796903e-31
  outer loop
    vertex 75.00120579152161 -30.293527341761365 21.306015217165722
    vertex 75.01143645202635 -30.212543324974696 18.306015217165722
    vertex 75.01143645202635 -30.212543324974696 21.306015217165722
  endloop
endfacet
facet normal 0.0 0.0 1.0
  outer loop
    vertex 77.649923165 -33.83434117945542 21.306015217165722
    vertex 65.999923165 -27.834341179455425 21.306015217165722
    vertex 65.999923165 -33.83434117945542 21.306015217165722
  endloop
endfacet
facet normal 0.0 0.0 1.0
  outer loop
    vertex 65.999923165 -27.834341179455425 21.306015217165722
    vertex 77.649923165 -33.83434117945542 21.306015217165722
    vertex 75.14908955719572 -30.74866677279207 21.306015217165722
  endloop
endfacet
facet normal 0.0 0.0 1.0
  outer loop
    vertex 65.999923165 -27.834341179455425 21.306015217165722
    vertex 75.14908955719572 -30.74866677279207 21.306015217165722
    vertex 75.10111001342368 -30.682628596191766 21.306015217165722
  endloop
endfacet
facet normal 0.0 0.0 1.0
  outer loop
    vertex 65.999923165 -27.834341179455425 21.306015217165722
    vertex 75.10111001342368 -30.682628596191766 21.306015217165722
    vertex 75.06178558089708 -30.61109771897271 21.306015217165722
  endloop
endfacet
facet normal 0.0 0.0 1.0
  outer loop
    vertex 65.999923165 -27.834341179455425 21.306015217165722
    vertex 75.06178558089708 -30.61109771897271 21.306015217165722
    vertex 75.03173642940814 -30.535202225799132 21.306015217165722
  endloop
endfacet
facet normal 0.0 0.0 1.0
  outer loop
    vertex 65.999923165 -27.834341179455425 21.306015217165722
    vertex 75.03173642940814 -30.535202225799132 21.306015217165722
    vertex 75.01143645202635 -30.45613903393614 21.306015217165722
  endloop
endfacet
facet normal 0.0 0.0 1.0
  outer loop
    vertex 65.999923165 -27.834341179455425 21.306015217165722
    vertex 75.01143645202635 -30.45613903393614 21.306015217165722
    vertex 75.00120579152161 -30.375155017149474 21.306015217165722
  endloop
endfacet
facet normal 0.0 0.0 1.0
  outer loop
    vertex 75.14908955719572 -30.74866677279207 21.306015217165722
    vertex 77.649923165 -33.83434117945542 21.306015217165722
    vertex 75.20496754614635 -30.808170787279337 21.306015217165722
  endloop
endfacet
facet normal 0.0 0.0 1.0
  outer loop
    vertex 75.20496754614635 -30.808170787279337 21.306015217165722
    vertex 77.649923165 -33.83434117945542 21.306015217165722
    vertex 75.26786275100989 -30.86020222579913 21.306015217165722
  endloop
endfacet
facet normal 0.0 0.0 1.0
  outer loop
    vertex 75.26786275100989 -30.86020222579913 21.306015217165722
    vertex 77.649923165 -33.83434117945542 21.306015217165722
    vertex 75.33678327683387 -30.90394052148393 21.306015217165722
  endloop
endfacet
facet normal 0.0 0.0 1.0
  outer loop
    vertex 75.33678327683387 -30.90394052148393 21.306015217165722
    vertex 77.649923165 -33.83434117945542 21.306015217165722
    vertex 75.41064220575495 -30.938695895282784 21.306015217165722
  endloop
endfacet
facet normal 0.0 0.0 1.0
  outer loop
    vertex 75.41064220575495 -30.938695895282784 21.306015217165722
    vertex 77.649923165 -33.83434117945542 21.306015217165722
    vertex 75.48827473834284 -30.963920234189025 21.306015217165722
  endloop
endfacet
facet normal 0.0 0.0 1.0
  outer loop
    vertex 75.48827473834284 -30.963920234189025 21.306015217165722
    vertex 77.649923165 -33.83434117945542 21.306015217165722
    vertex 75.56845656318319 -30.979215735309825 21.306015217165722
  endloop
endfacet
facet normal 0.0 0.0 1.0
  outer loop
    vertex 75.56845656318319 -30.979215735309825 21.306015217165722
    vertex 77.649923165 -33.83434117945542 21.306015217165722
    vertex 75.64992316499999 -30.984341179455416 21.306015217165722
  endloop
endfacet
facet normal 0.0 0.0 1.0
  outer loop
    vertex 75.64992316499999 -30.984341179455416 21.306015217165722
    vertex 77.649923165 -33.83434117945542 21.306015217165722
    vertex 75.73138976681679 -30.979215735309825 21.306015217165722
  endloop
endfacet
facet normal 0.0 0.0 1.0
  outer loop
    vertex 75.73138976681679 -30.979215735309825 21.306015217165722
    vertex 77.649923165 -33.83434117945542 21.306015217165722
    vertex 75.81157159165714 -30.963920234189025 21.306015217165722
  endloop
endfacet
facet normal 0.0 0.0 1.0
  outer loop
    vertex 75.81157159165714 -30.963920234189025 21.306015217165722
    vertex 77.649923165 -33.83434117945542 21.306015217165722
    vertex 75.88920412424503 -30.938695895282784 21.306015217165722
  endloop
endfacet
facet normal 0.0 0.0 1.0
  outer loop
    vertex 75.88920412424503 -30.938695895282784 21.306015217165722
    vertex 77.649923165 -33.83434117945542 21.306015217165722
    vertex 75.96306305316611 -30.90394052148393 21.306015217165722
  endloop
endfacet
facet normal 0.0 0.0 1.0
  outer loop
    vertex 75.96306305316611 -30.90394052148393 21.306015217165722
    vertex 77.649923165 -33.83434117945542 21.306015217165722
    vertex 76.0319835789901 -30.86020222579913 21.306015217165722
  endloop
endfacet
facet normal 0.0 0.0 1.0
  outer loop
    vertex 76.0319835789901 -30.86020222579913 21.306015217165722
    vertex 77.649923165 -33.83434117945542 21.306015217165722
    vertex 76.09487878385363 -30.808170787279337 21.306015217165722
  endloop
endfacet
facet normal 0.0 0.0 1.0
  outer loop
    vertex 76.09487878385363 -30.808170787279337 21.306015217165722
    vertex 77.649923165 -33.83434117945542 21.306015217165722
    vertex 76.15075677280426 -30.74866677279207 21.306015217165722
  endloop
endfacet
facet normal 0.0 0.0 1.0
  outer loop
    vertex 76.15075677280426 -30.74866677279207 21.306015217165722
    vertex 77.649923165 -33.83434117945542 21.306015217165722
    vertex 76.1987363165763 -30.682628596191766 21.306015217165722
  endloop
endfacet
facet normal 0.0 0.0 1.0
  outer loop
    vertex 76.1987363165763 -30.682628596191766 21.306015217165722
    vertex 77.649923165 -33.83434117945542 21.306015217165722
    vertex 76.2380607491029 -30.61109771897271 21.306015217165722
  endloop
endfacet
facet normal 0.0 0.0 1.0
  outer loop
    vertex 76.2380607491029 -30.61109771897271 21.306015217165722
    vertex 77.649923165 -33.83434117945542 21.306015217165722
    vertex 76.26810990059184 -30.535202225799132 21.306015217165722
  endloop
endfacet
facet normal 0.0 0.0 1.0
  outer loop
    vertex 76.26810990059184 -30.535202225799132 21.306015217165722
    vertex 77.649923165 -33.83434117945542 21.306015217165722
    vertex 76.28840987797363 -30.45613903393614 21.306015217165722
  endloop
endfacet
facet normal 0.0 0.0 1.0
  outer loop
    vertex 76.28840987797363 -30.45613903393614 21.306015217165722
    vertex 77.649923165 -33.83434117945542 21.306015217165722
    vertex 76.29864053847837 -30.375155017149474 21.306015217165722
  endloop
endfacet
facet normal 0.0 0.0 1.0
  outer loop
    vertex 76.29864053847837 -30.375155017149474 21.306015217165722
    vertex 77.649923165 -33.83434117945542 21.306015217165722
    vertex 76.29864053847837 -30.293527341761365 21.306015217165722
  endloop
endfacet
facet normal 0.0 0.0 1.0
  outer loop
    vertex 64.899923165 -29.834341179455425 21.306015217165722
    vertex 62.549923165 -25.83434117945542 21.306015217165722
    vertex 62.549923165 -29.834341179455425 21.306015217165722
  endloop
endfacet
facet normal 0.0 0.0 1.0
  outer loop
    vertex 62.549923165 -25.83434117945542 21.306015217165722
    vertex 64.899923165 -29.834341179455425 21.306015217165722
    vertex 64.899923165 -27.834341179455425 21.306015217165722
  endloop
endfacet
facet normal 0.0 0.0 1.0
  outer loop
    vertex 62.549923165 -25.83434117945542 21.306015217165722
    vertex 64.899923165 -27.834341179455425 21.306015217165722
    vertex 77.649923165 -25.83434117945542 21.306015217165722
  endloop
endfacet
facet normal 0.0 0.0 1.0
  outer loop
    vertex 77.649923165 -25.83434117945542 21.306015217165722
    vertex 64.899923165 -27.834341179455425 21.306015217165722
    vertex 65.999923165 -27.834341179455425 21.306015217165722
  endloop
endfacet
facet normal 0.0 0.0 1.0
  outer loop
    vertex 77.649923165 -25.83434117945542 21.306015217165722
    vertex 65.999923165 -27.834341179455425 21.306015217165722
    vertex 75.10111001342368 -29.98605376271907 21.306015217165722
  endloop
endfacet
facet normal 0.0 0.0 1.0
  outer loop
    vertex 75.10111001342368 -29.98605376271907 21.306015217165722
    vertex 65.999923165 -27.834341179455425 21.306015217165722
    vertex 75.06178558089708 -30.057584639938124 21.306015217165722
  endloop
endfacet
facet normal 0.0 0.0 1.0
  outer loop
    vertex 75.06178558089708 -30.057584639938124 21.306015217165722
    vertex 65.999923165 -27.834341179455425 21.306015217165722
    vertex 75.03173642940814 -30.133480133111703 21.306015217165722
  endloop
endfacet
facet normal 0.0 0.0 1.0
  outer loop
    vertex 75.03173642940814 -30.133480133111703 21.306015217165722
    vertex 65.999923165 -27.834341179455425 21.306015217165722
    vertex 75.01143645202635 -30.212543324974696 21.306015217165722
  endloop
endfacet
facet normal 0.0 0.0 1.0
  outer loop
    vertex 75.01143645202635 -30.212543324974696 21.306015217165722
    vertex 65.999923165 -27.834341179455425 21.306015217165722
    vertex 75.00120579152161 -30.293527341761365 21.306015217165722
  endloop
endfacet
facet normal 0.0 0.0 1.0
  outer loop
    vertex 75.00120579152161 -30.293527341761365 21.306015217165722
    vertex 65.999923165 -27.834341179455425 21.306015217165722
    vertex 75.00120579152161 -30.375155017149474 21.306015217165722
  endloop
endfacet
facet normal 0.0 0.0 1.0
  outer loop
    vertex 77.649923165 -25.83434117945542 21.306015217165722
    vertex 75.10111001342368 -29.98605376271907 21.306015217165722
    vertex 75.14908955719572 -29.92001558611877 21.306015217165722
  endloop
endfacet
facet normal 0.0 0.0 1.0
  outer loop
    vertex 77.649923165 -25.83434117945542 21.306015217165722
    vertex 75.14908955719572 -29.92001558611877 21.306015217165722
    vertex 75.20496754614635 -29.860511571631502 21.306015217165722
  endloop
endfacet
facet normal 0.0 0.0 1.0
  outer loop
    vertex 77.649923165 -25.83434117945542 21.306015217165722
    vertex 75.20496754614635 -29.860511571631502 21.306015217165722
    vertex 75.26786275100989 -29.808480133111704 21.306015217165722
  endloop
endfacet
facet normal 0.0 0.0 1.0
  outer loop
    vertex 77.649923165 -25.83434117945542 21.306015217165722
    vertex 75.26786275100989 -29.808480133111704 21.306015217165722
    vertex 75.33678327683387 -29.764741837426907 21.306015217165722
  endloop
endfacet
facet normal 0.0 0.0 1.0
  outer loop
    vertex 77.649923165 -25.83434117945542 21.306015217165722
    vertex 75.33678327683387 -29.764741837426907 21.306015217165722
    vertex 75.41064220575495 -29.729986463628055 21.306015217165722
  endloop
endfacet
facet normal 0.0 0.0 1.0
  outer loop
    vertex 77.649923165 -25.83434117945542 21.306015217165722
    vertex 75.41064220575495 -29.729986463628055 21.306015217165722
    vertex 75.48827473834284 -29.704762124721814 21.306015217165722
  endloop
endfacet
facet normal 0.0 0.0 1.0
  outer loop
    vertex 77.649923165 -25.83434117945542 21.306015217165722
    vertex 75.48827473834284 -29.704762124721814 21.306015217165722
    vertex 75.56845656318319 -29.68946662360101 21.306015217165722
  endloop
endfacet
facet normal 0.0 0.0 1.0
  outer loop
    vertex 77.649923165 -25.83434117945542 21.306015217165722
    vertex 75.56845656318319 -29.68946662360101 21.306015217165722
    vertex 75.64992316499999 -29.68434117945542 21.306015217165722
  endloop
endfacet
facet normal 0.0 0.0 1.0
  outer loop
    vertex 77.649923165 -25.83434117945542 21.306015217165722
    vertex 75.64992316499999 -29.68434117945542 21.306015217165722
    vertex 75.73138976681679 -29.68946662360101 21.306015217165722
  endloop
endfacet
facet normal 0.0 0.0 1.0
  outer loop
    vertex 77.649923165 -25.83434117945542 21.306015217165722
    vertex 75.73138976681679 -29.68946662360101 21.306015217165722
    vertex 75.81157159165714 -29.704762124721814 21.306015217165722
  endloop
endfacet
facet normal 0.0 0.0 1.0
  outer loop
    vertex 77.649923165 -25.83434117945542 21.306015217165722
    vertex 75.81157159165714 -29.704762124721814 21.306015217165722
    vertex 75.88920412424503 -29.729986463628055 21.306015217165722
  endloop
endfacet
facet normal 0.0 0.0 1.0
  outer loop
    vertex 77.649923165 -25.83434117945542 21.306015217165722
    vertex 75.88920412424503 -29.729986463628055 21.306015217165722
    vertex 75.96306305316611 -29.764741837426907 21.306015217165722
  endloop
endfacet
facet normal 0.0 0.0 1.0
  outer loop
    vertex 77.649923165 -25.83434117945542 21.306015217165722
    vertex 75.96306305316611 -29.764741837426907 21.306015217165722
    vertex 76.0319835789901 -29.808480133111704 21.306015217165722
  endloop
endfacet
facet normal 0.0 0.0 1.0
  outer loop
    vertex 77.649923165 -25.83434117945542 21.306015217165722
    vertex 76.0319835789901 -29.808480133111704 21.306015217165722
    vertex 76.09487878385363 -29.860511571631502 21.306015217165722
  endloop
endfacet
facet normal 0.0 0.0 1.0
  outer loop
    vertex 77.649923165 -25.83434117945542 21.306015217165722
    vertex 76.09487878385363 -29.860511571631502 21.306015217165722
    vertex 76.15075677280426 -29.92001558611877 21.306015217165722
  endloop
endfacet
facet normal 0.0 0.0 1.0
  outer loop
    vertex 77.649923165 -25.83434117945542 21.306015217165722
    vertex 76.15075677280426 -29.92001558611877 21.306015217165722
    vertex 76.1987363165763 -29.98605376271907 21.306015217165722
  endloop
endfacet
facet normal 0.0 0.0 1.0
  outer loop
    vertex 77.649923165 -25.83434117945542 21.306015217165722
    vertex 76.1987363165763 -29.98605376271907 21.306015217165722
    vertex 76.2380607491029 -30.057584639938124 21.306015217165722
  endloop
endfacet
facet normal 0.0 0.0 1.0
  outer loop
    vertex 77.649923165 -25.83434117945542 21.306015217165722
    vertex 76.2380607491029 -30.057584639938124 21.306015217165722
    vertex 76.26810990059184 -30.133480133111703 21.306015217165722
  endloop
endfacet
facet normal 0.0 0.0 1.0
  outer loop
    vertex 77.649923165 -25.83434117945542 21.306015217165722
    vertex 76.26810990059184 -30.133480133111703 21.306015217165722
    vertex 76.28840987797363 -30.212543324974696 21.306015217165722
  endloop
endfacet
facet normal 0.0 0.0 1.0
  outer loop
    vertex 77.649923165 -25.83434117945542 21.306015217165722
    vertex 76.28840987797363 -30.212543324974696 21.306015217165722
    vertex 76.29864053847837 -30.293527341761365 21.306015217165722
  endloop
endfacet
facet normal 0.0 0.0 1.0
  outer loop
    vertex 77.649923165 -25.83434117945542 21.306015217165722
    vertex 76.29864053847837 -30.293527341761365 21.306015217165722
    vertex 77.649923165 -33.83434117945542 21.306015217165722
  endloop
endfacet
facet normal 0.9510565162951425 -0.3090169943749816 -1.0841167122686868e-19
  outer loop
    vertex 75.03173642940814 -30.133480133111703 18.306015217165722
    vertex 75.01143645202635 -30.212543324974696 21.306015217165722
    vertex 75.01143645202635 -30.212543324974696 18.306015217165722
  endloop
endfacet
facet normal 0.9822872507286887 -0.18738131458572466 1.1785552996551032e-19
  outer loop
    vertex 75.01143645202635 -30.212543324974696 21.306015217165722
    vertex 75.03173642940814 -30.133480133111703 18.306015217165722
    vertex 75.03173642940814 -30.133480133111703 21.306015217165722
  endloop
endfacet
facet normal 0.9048270524660076 -0.4257792915650981 -2.2626720119215597e-19
  outer loop
    vertex 75.06178558089708 -30.057584639938124 18.306015217165722
    vertex 75.03173642940814 -30.133480133111703 21.306015217165722
    vertex 75.03173642940814 -30.133480133111703 18.306015217165722
  endloop
endfacet
facet normal 0.9510565162951425 -0.3090169943749816 -1.0841167122686868e-19
  outer loop
    vertex 75.03173642940814 -30.133480133111703 21.306015217165722
    vertex 75.06178558089708 -30.057584639938124 18.306015217165722
    vertex 75.06178558089708 -30.057584639938124 21.306015217165722
  endloop
endfacet
facet normal 0.8443279255020464 -0.5358267949789476 0.0
  outer loop
    vertex 75.10111001342368 -29.98605376271907 18.306015217165722
    vertex 75.06178558089708 -30.057584639938124 21.306015217165722
    vertex 75.06178558089708 -30.057584639938124 18.306015217165722
  endloop
endfacet
facet normal 0.9048270524660076 -0.4257792915650981 -2.2626720119215597e-19
  outer loop
    vertex 75.06178558089708 -30.057584639938124 21.306015217165722
    vertex 75.10111001342368 -29.98605376271907 18.306015217165722
    vertex 75.10111001342368 -29.98605376271907 21.306015217165722
  endloop
endfacet
facet normal 0.7705132427757959 -0.6374239897486815 -2.5814994708248405e-30
  outer loop
    vertex 75.14908955719572 -29.92001558611877 18.306015217165722
    vertex 75.10111001342368 -29.98605376271907 21.306015217165722
    vertex 75.10111001342368 -29.98605376271907 18.306015217165722
  endloop
endfacet
facet normal 0.8443279255020464 -0.5358267949789476 0.0
  outer loop
    vertex 75.10111001342368 -29.98605376271907 21.306015217165722
    vertex 75.14908955719572 -29.92001558611877 18.306015217165722
    vertex 75.14908955719572 -29.92001558611877 21.306015217165722
  endloop
endfacet
facet normal 1.0 0.0 0.0
  outer loop
    vertex 64.899923165 -27.834341179455425 18.306015217165722
    vertex 64.899923165 -29.834341179455425 21.306015217165722
    vertex 64.899923165 -29.834341179455425 18.306015217165722
  endloop
endfacet
facet normal 1.0 0.0 0.0
  outer loop
    vertex 64.899923165 -29.834341179455425 21.306015217165722
    vertex 64.899923165 -27.834341179455425 18.306015217165722
    vertex 64.899923165 -27.834341179455425 21.306015217165722
  endloop
endfacet
facet normal 0.6845471059286753 -0.7289686274214241 -6.203122346161385e-30
  outer loop
    vertex 75.20496754614635 -29.860511571631502 18.306015217165722
    vertex 75.14908955719572 -29.92001558611877 21.306015217165722
    vertex 75.14908955719572 -29.92001558611877 18.306015217165722
  endloop
endfacet
facet normal 0.7705132427757959 -0.6374239897486815 -2.5814994708248405e-30
  outer loop
    vertex 75.14908955719572 -29.92001558611877 21.306015217165722
    vertex 75.20496754614635 -29.860511571631502 18.306015217165722
    vertex 75.20496754614635 -29.860511571631502 21.306015217165722
  endloop
endfacet
facet normal 0.5877852522924845 -0.8090169943749393 -5.519148414378042e-30
  outer loop
    vertex 75.26786275100989 -29.808480133111704 21.306015217165722
    vertex 75.20496754614635 -29.860511571631502 18.306015217165722
    vertex 75.26786275100989 -29.808480133111704 18.306015217165722
  endloop
endfacet
facet normal 0.6845471059286753 -0.7289686274214241 -6.203122346161385e-30
  outer loop
    vertex 75.20496754614635 -29.860511571631502 18.306015217165722
    vertex 75.26786275100989 -29.808480133111704 21.306015217165722
    vertex 75.20496754614635 -29.860511571631502 21.306015217165722
  endloop
endfacet
facet normal 0.4817536741017054 -0.876306680043869 -1.8975255390414666e-30
  outer loop
    vertex 75.33678327683387 -29.764741837426907 21.306015217165722
    vertex 75.26786275100989 -29.808480133111704 18.306015217165722
    vertex 75.33678327683387 -29.764741837426907 18.306015217165722
  endloop
endfacet
facet normal 0.5877852522924845 -0.8090169943749393 -5.519148414378042e-30
  outer loop
    vertex 75.26786275100989 -29.808480133111704 18.306015217165722
    vertex 75.33678327683387 -29.764741837426907 21.306015217165722
    vertex 75.26786275100989 -29.808480133111704 21.306015217165722
  endloop
endfacet
facet normal 0.3681245526846585 -0.9297764858882592 2.188646198058264e-30
  outer loop
    vertex 75.41064220575495 -29.729986463628055 21.306015217165722
    vertex 75.33678327683387 -29.764741837426907 18.306015217165722
    vertex 75.41064220575495 -29.729986463628055 18.306015217165722
  endloop
endfacet
facet normal 0.4817536741017054 -0.876306680043869 -1.8975255390414666e-30
  outer loop
    vertex 75.33678327683387 -29.764741837426907 18.306015217165722
    vertex 75.41064220575495 -29.729986463628055 21.306015217165722
    vertex 75.33678327683387 -29.764741837426907 21.306015217165722
  endloop
endfacet
facet normal 0.24868988716484747 -0.9685831611286332 3.927935052589666e-30
  outer loop
    vertex 75.48827473834284 -29.704762124721814 21.306015217165722
    vertex 75.41064220575495 -29.729986463628055 18.306015217165722
    vertex 75.48827473834284 -29.704762124721814 18.306015217165722
  endloop
endfacet
facet normal 0.3681245526846585 -0.9297764858882592 2.188646198058264e-30
  outer loop
    vertex 75.41064220575495 -29.729986463628055 18.306015217165722
    vertex 75.48827473834284 -29.704762124721814 21.306015217165722
    vertex 75.41064220575495 -29.729986463628055 21.306015217165722
  endloop
endfacet
facet normal 0.12533323356431916 -0.9921147013144761 1.5169285404652149e-30
  outer loop
    vertex 75.56845656318319 -29.68946662360101 21.306015217165722
    vertex 75.48827473834284 -29.704762124721814 18.306015217165722
    vertex 75.56845656318319 -29.68946662360101 18.306015217165722
  endloop
endfacet
facet normal 0.24868988716484747 -0.9685831611286332 3.927935052589666e-30
  outer loop
    vertex 75.48827473834284 -29.704762124721814 18.306015217165722
    vertex 75.56845656318319 -29.68946662360101 21.306015217165722
    vertex 75.48827473834284 -29.704762124721814 21.306015217165722
  endloop
endfacet
facet normal 0.0 -1.0 -4.447206281323751e-31
  outer loop
    vertex 75.64992316499999 -29.68434117945542 21.306015217165722
    vertex 75.56845656318319 -29.68946662360101 18.306015217165722
    vertex 75.64992316499999 -29.68434117945542 18.306015217165722
  endloop
endfacet
facet normal 0.12533323356431916 -0.9921147013144761 1.5169285404652149e-30
  outer loop
    vertex 75.56845656318319 -29.68946662360101 18.306015217165722
    vertex 75.64992316499999 -29.68434117945542 21.306015217165722
    vertex 75.56845656318319 -29.68946662360101 21.306015217165722
  endloop
endfacet
facet normal -0.12533323356431916 -0.9921147013144761 1.5169285404652149e-30
  outer loop
    vertex 75.73138976681679 -29.68946662360101 21.306015217165722
    vertex 75.64992316499999 -29.68434117945542 18.306015217165722
    vertex 75.73138976681679 -29.68946662360101 18.306015217165722
  endloop
endfacet
facet normal 0.0 -1.0 -4.447206281323751e-31
  outer loop
    vertex 75.64992316499999 -29.68434117945542 18.306015217165722
    vertex 75.73138976681679 -29.68946662360101 21.306015217165722
    vertex 75.64992316499999 -29.68434117945542 21.306015217165722
  endloop
endfacet
facet normal -0.24868988716484747 -0.9685831611286332 -4.493573435268608e-31
  outer loop
    vertex 75.81157159165714 -29.704762124721814 21.306015217165722
    vertex 75.73138976681679 -29.68946662360101 18.306015217165722
    vertex 75.81157159165714 -29.704762124721814 18.306015217165722
  endloop
endfacet
facet normal -0.12533323356431916 -0.9921147013144761 1.5169285404652149e-30
  outer loop
    vertex 75.73138976681679 -29.68946662360101 18.306015217165722
    vertex 75.81157159165714 -29.704762124721814 21.306015217165722
    vertex 75.73138976681679 -29.68946662360101 21.306015217165722
  endloop
endfacet
facet normal -0.3681245526846585 -0.9297764858882592 -2.188646198058264e-30
  outer loop
    vertex 75.88920412424503 -29.729986463628055 21.306015217165722
    vertex 75.81157159165714 -29.704762124721814 18.306015217165722
    vertex 75.88920412424503 -29.729986463628055 18.306015217165722
  endloop
endfacet
facet normal -0.24868988716484747 -0.9685831611286332 -4.493573435268608e-31
  outer loop
    vertex 75.81157159165714 -29.704762124721814 18.306015217165722
    vertex 75.88920412424503 -29.729986463628055 21.306015217165722
    vertex 75.81157159165714 -29.704762124721814 21.306015217165722
  endloop
endfacet
facet normal -0.4817536741017054 -0.876306680043869 -1.8975255390414666e-30
  outer loop
    vertex 75.96306305316611 -29.764741837426907 21.306015217165722
    vertex 75.88920412424503 -29.729986463628055 18.306015217165722
    vertex 75.96306305316611 -29.764741837426907 18.306015217165722
  endloop
endfacet
facet normal -0.3681245526846585 -0.9297764858882592 -2.188646198058264e-30
  outer loop
    vertex 75.88920412424503 -29.729986463628055 18.306015217165722
    vertex 75.96306305316611 -29.764741837426907 21.306015217165722
    vertex 75.88920412424503 -29.729986463628055 21.306015217165722
  endloop
endfacet
facet normal -0.5877852522924845 -0.8090169943749393 -5.519148414378042e-30
  outer loop
    vertex 76.0319835789901 -29.808480133111704 21.306015217165722
    vertex 75.96306305316611 -29.764741837426907 18.306015217165722
    vertex 76.0319835789901 -29.808480133111704 18.306015217165722
  endloop
endfacet
facet normal -0.4817536741017054 -0.876306680043869 -1.8975255390414666e-30
  outer loop
    vertex 75.96306305316611 -29.764741837426907 18.306015217165722
    vertex 76.0319835789901 -29.808480133111704 21.306015217165722
    vertex 75.96306305316611 -29.764741837426907 21.306015217165722
  endloop
endfacet
facet normal -0.6845471059286753 -0.7289686274214242 -6.203122346161385e-30
  outer loop
    vertex 76.09487878385363 -29.860511571631502 21.306015217165722
    vertex 76.0319835789901 -29.808480133111704 18.306015217165722
    vertex 76.09487878385363 -29.860511571631502 18.306015217165722
  endloop
endfacet
facet normal -0.5877852522924845 -0.8090169943749393 -5.519148414378042e-30
  outer loop
    vertex 76.0319835789901 -29.808480133111704 18.306015217165722
    vertex 76.09487878385363 -29.860511571631502 21.306015217165722
    vertex 76.0319835789901 -29.808480133111704 21.306015217165722
  endloop
endfacet
facet normal -0.6845471059286753 -0.7289686274214242 -6.203122346161385e-30
  outer loop
    vertex 76.09487878385363 -29.860511571631502 21.306015217165722
    vertex 76.15075677280426 -29.92001558611877 18.306015217165722
    vertex 76.15075677280426 -29.92001558611877 21.306015217165722
  endloop
endfacet
facet normal -0.7705132427757959 -0.6374239897486815 -2.5814994708248405e-30
  outer loop
    vertex 76.15075677280426 -29.92001558611877 18.306015217165722
    vertex 76.09487878385363 -29.860511571631502 21.306015217165722
    vertex 76.09487878385363 -29.860511571631502 18.306015217165722
  endloop
endfacet
facet normal -0.7705132427757959 -0.6374239897486815 -2.5814994708248405e-30
  outer loop
    vertex 76.15075677280426 -29.92001558611877 21.306015217165722
    vertex 76.1987363165763 -29.98605376271907 18.306015217165722
    vertex 76.1987363165763 -29.98605376271907 21.306015217165722
  endloop
endfacet
facet normal -0.8443279255020464 -0.5358267949789476 0.0
  outer loop
    vertex 76.1987363165763 -29.98605376271907 18.306015217165722
    vertex 76.15075677280426 -29.92001558611877 21.306015217165722
    vertex 76.15075677280426 -29.92001558611877 18.306015217165722
  endloop
endfacet
facet normal -0.8443279255020464 -0.5358267949789476 0.0
  outer loop
    vertex 76.1987363165763 -29.98605376271907 21.306015217165722
    vertex 76.2380607491029 -30.057584639938124 18.306015217165722
    vertex 76.2380607491029 -30.057584639938124 21.306015217165722
  endloop
endfacet
facet normal -0.9048270524660076 -0.4257792915650981 -2.2626720119215597e-19
  outer loop
    vertex 76.2380607491029 -30.057584639938124 18.306015217165722
    vertex 76.1987363165763 -29.98605376271907 21.306015217165722
    vertex 76.1987363165763 -29.98605376271907 18.306015217165722
  endloop
endfacet
facet normal -0.9048270524660076 -0.4257792915650981 -2.2626720119215597e-19
  outer loop
    vertex 76.2380607491029 -30.057584639938124 21.306015217165722
    vertex 76.26810990059184 -30.133480133111703 18.306015217165722
    vertex 76.26810990059184 -30.133480133111703 21.306015217165722
  endloop
endfacet
facet normal -0.9510565162951425 -0.3090169943749816 -3.441227311574466e-19
  outer loop
    vertex 76.26810990059184 -30.133480133111703 18.306015217165722
    vertex 76.2380607491029 -30.057584639938124 21.306015217165722
    vertex 76.2380607491029 -30.057584639938124 18.306015217165722
  endloop
endfacet
facet normal -0.9510565162951425 -0.3090169943749816 -3.441227311574466e-19
  outer loop
    vertex 76.26810990059184 -30.133480133111703 21.306015217165722
    vertex 76.28840987797363 -30.212543324974696 18.306015217165722
    vertex 76.28840987797363 -30.212543324974696 21.306015217165722
  endloop
endfacet
facet normal -0.9822872507286887 -0.18738131458572466 -1.1785552996506647e-19
  outer loop
    vertex 76.28840987797363 -30.212543324974696 18.306015217165722
    vertex 76.26810990059184 -30.133480133111703 21.306015217165722
    vertex 76.26810990059184 -30.133480133111703 18.306015217165722
  endloop
endfacet
facet normal -0.9822872507286887 -0.18738131458572466 -1.1785552996506647e-19
  outer loop
    vertex 76.28840987797363 -30.212543324974696 21.306015217165722
    vertex 76.29864053847837 -30.293527341761365 18.306015217165722
    vertex 76.29864053847837 -30.293527341761365 21.306015217165722
  endloop
endfacet
facet normal -0.9980267284282711 -0.06279051952932257 2.219215367796903e-31
  outer loop
    vertex 76.29864053847837 -30.293527341761365 18.306015217165722
    vertex 76.28840987797363 -30.212543324974696 21.306015217165722
    vertex 76.28840987797363 -30.212543324974696 18.306015217165722
  endloop
endfacet
facet normal -0.9980267284282711 -0.06279051952932257 2.219215367796903e-31
  outer loop
    vertex 76.29864053847837 -30.293527341761365 21.306015217165722
    vertex 76.29864053847837 -30.375155017149474 18.306015217165722
    vertex 76.29864053847837 -30.375155017149474 21.306015217165722
  endloop
endfacet
facet normal -0.9980267284282711 0.06279051952932257 2.219215367796903e-31
  outer loop
    vertex 76.29864053847837 -30.375155017149474 18.306015217165722
    vertex 76.29864053847837 -30.293527341761365 21.306015217165722
    vertex 76.29864053847837 -30.293527341761365 18.306015217165722
  endloop
endfacet
facet normal -0.9980267284282711 0.06279051952932257 2.219215367796903e-31
  outer loop
    vertex 76.29864053847837 -30.375155017149474 21.306015217165722
    vertex 76.28840987797363 -30.45613903393614 18.306015217165722
    vertex 76.28840987797363 -30.45613903393614 21.306015217165722
  endloop
endfacet
facet normal -0.9822872507286887 0.18738131458572466 1.1785552996551032e-19
  outer loop
    vertex 76.28840987797363 -30.45613903393614 18.306015217165722
    vertex 76.29864053847837 -30.375155017149474 21.306015217165722
    vertex 76.29864053847837 -30.375155017149474 18.306015217165722
  endloop
endfacet
facet normal -0.9822872507286887 0.18738131458572466 1.1785552996551032e-19
  outer loop
    vertex 76.28840987797363 -30.45613903393614 21.306015217165722
    vertex 76.26810990059184 -30.535202225799132 18.306015217165722
    vertex 76.26810990059184 -30.535202225799132 21.306015217165722
  endloop
endfacet
facet normal -0.9510565162951425 0.3090169943749816 3.441227311574466e-19
  outer loop
    vertex 76.26810990059184 -30.535202225799132 18.306015217165722
    vertex 76.28840987797363 -30.45613903393614 21.306015217165722
    vertex 76.28840987797363 -30.45613903393614 18.306015217165722
  endloop
endfacet
facet normal -0.9510565162951425 0.3090169943749816 3.441227311574466e-19
  outer loop
    vertex 76.26810990059184 -30.535202225799132 21.306015217165722
    vertex 76.2380607491029 -30.61109771897271 18.306015217165722
    vertex 76.2380607491029 -30.61109771897271 21.306015217165722
  endloop
endfacet
facet normal -0.9048270524660076 0.4257792915650981 2.2626720119215597e-19
  outer loop
    vertex 76.2380607491029 -30.61109771897271 18.306015217165722
    vertex 76.26810990059184 -30.535202225799132 21.306015217165722
    vertex 76.26810990059184 -30.535202225799132 18.306015217165722
  endloop
endfacet
facet normal -0.9048270524660076 0.4257792915650981 2.2626720119215597e-19
  outer loop
    vertex 76.2380607491029 -30.61109771897271 21.306015217165722
    vertex 76.1987363165763 -30.682628596191766 18.306015217165722
    vertex 76.1987363165763 -30.682628596191766 21.306015217165722
  endloop
endfacet
facet normal -0.8443279255020464 0.5358267949789476 0.0
  outer loop
    vertex 76.1987363165763 -30.682628596191766 18.306015217165722
    vertex 76.2380607491029 -30.61109771897271 21.306015217165722
    vertex 76.2380607491029 -30.61109771897271 18.306015217165722
  endloop
endfacet
facet normal -0.8443279255020464 0.5358267949789476 0.0
  outer loop
    vertex 76.1987363165763 -30.682628596191766 21.306015217165722
    vertex 76.15075677280426 -30.74866677279207 18.306015217165722
    vertex 76.15075677280426 -30.74866677279207 21.306015217165722
  endloop
endfacet
facet normal -0.7705132427757959 0.6374239897486815 -2.5814994708248405e-30
  outer loop
    vertex 76.15075677280426 -30.74866677279207 18.306015217165722
    vertex 76.1987363165763 -30.682628596191766 21.306015217165722
    vertex 76.1987363165763 -30.682628596191766 18.306015217165722
  endloop
endfacet
facet normal -0.7705132427757959 0.6374239897486815 -2.5814994708248405e-30
  outer loop
    vertex 76.15075677280426 -30.74866677279207 21.306015217165722
    vertex 76.09487878385363 -30.808170787279337 18.306015217165722
    vertex 76.09487878385363 -30.808170787279337 21.306015217165722
  endloop
endfacet
facet normal -0.6845471059286753 0.7289686274214241 -6.203122346161385e-30
  outer loop
    vertex 76.09487878385363 -30.808170787279337 18.306015217165722
    vertex 76.15075677280426 -30.74866677279207 21.306015217165722
    vertex 76.15075677280426 -30.74866677279207 18.306015217165722
  endloop
endfacet
facet normal -0.5877852522924845 0.8090169943749393 -5.519148414378042e-30
  outer loop
    vertex 76.0319835789901 -30.86020222579913 21.306015217165722
    vertex 76.09487878385363 -30.808170787279337 18.306015217165722
    vertex 76.0319835789901 -30.86020222579913 18.306015217165722
  endloop
endfacet
facet normal -0.6845471059286753 0.7289686274214241 -6.203122346161385e-30
  outer loop
    vertex 76.09487878385363 -30.808170787279337 18.306015217165722
    vertex 76.0319835789901 -30.86020222579913 21.306015217165722
    vertex 76.09487878385363 -30.808170787279337 21.306015217165722
  endloop
endfacet
facet normal -0.4817536741017054 0.876306680043869 -1.8975255390414666e-30
  outer loop
    vertex 75.96306305316611 -30.90394052148393 21.306015217165722
    vertex 76.0319835789901 -30.86020222579913 18.306015217165722
    vertex 75.96306305316611 -30.90394052148393 18.306015217165722
  endloop
endfacet
facet normal -0.5877852522924845 0.8090169943749393 -5.519148414378042e-30
  outer loop
    vertex 76.0319835789901 -30.86020222579913 18.306015217165722
    vertex 75.96306305316611 -30.90394052148393 21.306015217165722
    vertex 76.0319835789901 -30.86020222579913 21.306015217165722
  endloop
endfacet
facet normal -0.3681245526846585 0.9297764858882592 0.0
  outer loop
    vertex 75.88920412424503 -30.938695895282784 21.306015217165722
    vertex 75.96306305316611 -30.90394052148393 18.306015217165722
    vertex 75.88920412424503 -30.938695895282784 18.306015217165722
  endloop
endfacet
facet normal -0.4817536741017054 0.876306680043869 -1.8975255390414666e-30
  outer loop
    vertex 75.96306305316611 -30.90394052148393 18.306015217165722
    vertex 75.88920412424503 -30.938695895282784 21.306015217165722
    vertex 75.96306305316611 -30.90394052148393 21.306015217165722
  endloop
endfacet
facet normal -0.24868988716484744 0.9685831611286332 -9.120094183863448e-20
  outer loop
    vertex 75.81157159165714 -30.963920234189025 21.306015217165722
    vertex 75.88920412424503 -30.938695895282784 18.306015217165722
    vertex 75.81157159165714 -30.963920234189025 18.306015217165722
  endloop
endfacet
facet normal -0.3681245526846585 0.9297764858882592 0.0
  outer loop
    vertex 75.88920412424503 -30.938695895282784 18.306015217165722
    vertex 75.81157159165714 -30.963920234189025 21.306015217165722
    vertex 75.88920412424503 -30.938695895282784 21.306015217165722
  endloop
endfacet
facet normal -0.12533323356431916 0.9921147013144761 -9.120094183885679e-20
  outer loop
    vertex 75.73138976681679 -30.979215735309825 21.306015217165722
    vertex 75.81157159165714 -30.963920234189025 18.306015217165722
    vertex 75.73138976681679 -30.979215735309825 18.306015217165722
  endloop
endfacet
facet normal -0.24868988716484744 0.9685831611286332 -9.120094183863448e-20
  outer loop
    vertex 75.81157159165714 -30.963920234189025 18.306015217165722
    vertex 75.73138976681679 -30.979215735309825 21.306015217165722
    vertex 75.81157159165714 -30.963920234189025 21.306015217165722
  endloop
endfacet
facet normal 0.0 1.0 -4.447206281323751e-31
  outer loop
    vertex 75.64992316499999 -30.984341179455416 21.306015217165722
    vertex 75.73138976681679 -30.979215735309825 18.306015217165722
    vertex 75.64992316499999 -30.984341179455416 18.306015217165722
  endloop
endfacet
facet normal -0.12533323356431916 0.9921147013144761 -9.120094183885679e-20
  outer loop
    vertex 75.73138976681679 -30.979215735309825 18.306015217165722
    vertex 75.64992316499999 -30.984341179455416 21.306015217165722
    vertex 75.73138976681679 -30.979215735309825 21.306015217165722
  endloop
endfacet
facet normal 0.12533323356431916 0.9921147013144761 -9.120094183885679e-20
  outer loop
    vertex 75.56845656318319 -30.979215735309825 21.306015217165722
    vertex 75.64992316499999 -30.984341179455416 18.306015217165722
    vertex 75.56845656318319 -30.979215735309825 18.306015217165722
  endloop
endfacet
facet normal 0.0 1.0 -4.447206281323751e-31
  outer loop
    vertex 75.64992316499999 -30.984341179455416 18.306015217165722
    vertex 75.56845656318319 -30.979215735309825 21.306015217165722
    vertex 75.64992316499999 -30.984341179455416 21.306015217165722
  endloop
endfacet
facet normal 0.24868988716484744 0.9685831611286332 -9.120094183863448e-20
  outer loop
    vertex 75.48827473834284 -30.963920234189025 21.306015217165722
    vertex 75.56845656318319 -30.979215735309825 18.306015217165722
    vertex 75.48827473834284 -30.963920234189025 18.306015217165722
  endloop
endfacet
facet normal 0.12533323356431916 0.9921147013144761 -9.120094183885679e-20
  outer loop
    vertex 75.56845656318319 -30.979215735309825 18.306015217165722
    vertex 75.48827473834284 -30.963920234189025 21.306015217165722
    vertex 75.56845656318319 -30.979215735309825 21.306015217165722
  endloop
endfacet
facet normal 0.0 -1.0 0.0
  outer loop
    vertex 64.899923165 -29.834341179455425 21.306015217165722
    vertex 62.549923165 -29.834341179455425 18.306015217165722
    vertex 64.899923165 -29.834341179455425 18.306015217165722
  endloop
endfacet
facet normal 0.0 -1.0 0.0
  outer loop
    vertex 62.549923165 -29.834341179455425 18.306015217165722
    vertex 64.899923165 -29.834341179455425 21.306015217165722
    vertex 62.549923165 -29.834341179455425 21.306015217165722
  endloop
endfacet
facet normal 0.0 0.0 -1.0
  outer loop
    vertex 62.549923165 -25.83434117945542 18.306015217165722
    vertex 64.899923165 -27.834341179455425 18.306015217165722
    vertex 62.549923165 -29.834341179455425 18.306015217165722
  endloop
endfacet
facet normal 0.0 0.0 -1.0
  outer loop
    vertex 64.899923165 -27.834341179455425 18.306015217165722
    vertex 62.549923165 -25.83434117945542 18.306015217165722
    vertex 77.649923165 -25.83434117945542 18.306015217165722
  endloop
endfacet
facet normal 0.0 0.0 -1.0
  outer loop
    vertex 64.899923165 -27.834341179455425 18.306015217165722
    vertex 77.649923165 -25.83434117945542 18.306015217165722
    vertex 65.999923165 -27.834341179455425 18.306015217165722
  endloop
endfacet
facet normal 0.0 0.0 -1.0
  outer loop
    vertex 65.999923165 -27.834341179455425 18.306015217165722
    vertex 77.649923165 -25.83434117945542 18.306015217165722
    vertex 65.999923165 -33.83434117945542 18.306015217165722
  endloop
endfacet
facet normal 0.0 0.0 -1.0
  outer loop
    vertex 65.999923165 -33.83434117945542 18.306015217165722
    vertex 77.649923165 -25.83434117945542 18.306015217165722
    vertex 75.10111001342368 -29.98605376271907 18.306015217165722
  endloop
endfacet
facet normal 0.0 0.0 -1.0
  outer loop
    vertex 65.999923165 -33.83434117945542 18.306015217165722
    vertex 75.10111001342368 -29.98605376271907 18.306015217165722
    vertex 75.06178558089708 -30.057584639938124 18.306015217165722
  endloop
endfacet
facet normal 0.0 0.0 -1.0
  outer loop
    vertex 65.999923165 -33.83434117945542 18.306015217165722
    vertex 75.06178558089708 -30.057584639938124 18.306015217165722
    vertex 75.03173642940814 -30.133480133111703 18.306015217165722
  endloop
endfacet
facet normal 0.0 0.0 -1.0
  outer loop
    vertex 65.999923165 -33.83434117945542 18.306015217165722
    vertex 75.03173642940814 -30.133480133111703 18.306015217165722
    vertex 75.01143645202635 -30.212543324974696 18.306015217165722
  endloop
endfacet
facet normal 0.0 0.0 -1.0
  outer loop
    vertex 65.999923165 -33.83434117945542 18.306015217165722
    vertex 75.01143645202635 -30.212543324974696 18.306015217165722
    vertex 75.00120579152161 -30.293527341761365 18.306015217165722
  endloop
endfacet
facet normal 0.0 0.0 -1.0
  outer loop
    vertex 75.10111001342368 -29.98605376271907 18.306015217165722
    vertex 77.649923165 -25.83434117945542 18.306015217165722
    vertex 75.14908955719572 -29.92001558611877 18.306015217165722
  endloop
endfacet
facet normal 0.0 0.0 -1.0
  outer loop
    vertex 75.14908955719572 -29.92001558611877 18.306015217165722
    vertex 77.649923165 -25.83434117945542 18.306015217165722
    vertex 75.20496754614635 -29.860511571631502 18.306015217165722
  endloop
endfacet
facet normal 0.0 0.0 -1.0
  outer loop
    vertex 75.20496754614635 -29.860511571631502 18.306015217165722
    vertex 77.649923165 -25.83434117945542 18.306015217165722
    vertex 75.26786275100989 -29.808480133111704 18.306015217165722
  endloop
endfacet
facet normal 0.0 0.0 -1.0
  outer loop
    vertex 75.26786275100989 -29.808480133111704 18.306015217165722
    vertex 77.649923165 -25.83434117945542 18.306015217165722
    vertex 75.33678327683387 -29.764741837426907 18.306015217165722
  endloop
endfacet
facet normal 0.0 0.0 -1.0
  outer loop
    vertex 75.33678327683387 -29.764741837426907 18.306015217165722
    vertex 77.649923165 -25.83434117945542 18.306015217165722
    vertex 75.41064220575495 -29.729986463628055 18.306015217165722
  endloop
endfacet
facet normal 0.0 0.0 -1.0
  outer loop
    vertex 75.41064220575495 -29.729986463628055 18.306015217165722
    vertex 77.649923165 -25.83434117945542 18.306015217165722
    vertex 75.48827473834284 -29.704762124721814 18.306015217165722
  endloop
endfacet
facet normal 0.0 0.0 -1.0
  outer loop
    vertex 75.48827473834284 -29.704762124721814 18.306015217165722
    vertex 77.649923165 -25.83434117945542 18.306015217165722
    vertex 75.56845656318319 -29.68946662360101 18.306015217165722
  endloop
endfacet
facet normal 0.0 0.0 -1.0
  outer loop
    vertex 75.56845656318319 -29.68946662360101 18.306015217165722
    vertex 77.649923165 -25.83434117945542 18.306015217165722
    vertex 75.64992316499999 -29.68434117945542 18.306015217165722
  endloop
endfacet
facet normal 0.0 0.0 -1.0
  outer loop
    vertex 75.64992316499999 -29.68434117945542 18.306015217165722
    vertex 77.649923165 -25.83434117945542 18.306015217165722
    vertex 75.73138976681679 -29.68946662360101 18.306015217165722
  endloop
endfacet
facet normal 0.0 0.0 -1.0
  outer loop
    vertex 75.73138976681679 -29.68946662360101 18.306015217165722
    vertex 77.649923165 -25.83434117945542 18.306015217165722
    vertex 75.81157159165714 -29.704762124721814 18.306015217165722
  endloop
endfacet
facet normal 0.0 0.0 -1.0
  outer loop
    vertex 75.81157159165714 -29.704762124721814 18.306015217165722
    vertex 77.649923165 -25.83434117945542 18.306015217165722
    vertex 75.88920412424503 -29.729986463628055 18.306015217165722
  endloop
endfacet
facet normal 0.0 0.0 -1.0
  outer loop
    vertex 75.88920412424503 -29.729986463628055 18.306015217165722
    vertex 77.649923165 -25.83434117945542 18.306015217165722
    vertex 75.96306305316611 -29.764741837426907 18.306015217165722
  endloop
endfacet
facet normal 0.0 0.0 -1.0
  outer loop
    vertex 75.96306305316611 -29.764741837426907 18.306015217165722
    vertex 77.649923165 -25.83434117945542 18.306015217165722
    vertex 76.0319835789901 -29.808480133111704 18.306015217165722
  endloop
endfacet
facet normal 0.0 0.0 -1.0
  outer loop
    vertex 76.0319835789901 -29.808480133111704 18.306015217165722
    vertex 77.649923165 -25.83434117945542 18.306015217165722
    vertex 76.09487878385363 -29.860511571631502 18.306015217165722
  endloop
endfacet
facet normal 0.0 0.0 -1.0
  outer loop
    vertex 76.09487878385363 -29.860511571631502 18.306015217165722
    vertex 77.649923165 -25.83434117945542 18.306015217165722
    vertex 76.15075677280426 -29.92001558611877 18.306015217165722
  endloop
endfacet
facet normal 0.0 0.0 -1.0
  outer loop
    vertex 76.15075677280426 -29.92001558611877 18.306015217165722
    vertex 77.649923165 -25.83434117945542 18.306015217165722
    vertex 76.1987363165763 -29.98605376271907 18.306015217165722
  endloop
endfacet
facet normal 0.0 0.0 -1.0
  outer loop
    vertex 76.1987363165763 -29.98605376271907 18.306015217165722
    vertex 77.649923165 -25.83434117945542 18.306015217165722
    vertex 76.2380607491029 -30.057584639938124 18.306015217165722
  endloop
endfacet
facet normal 0.0 0.0 -1.0
  outer loop
    vertex 76.2380607491029 -30.057584639938124 18.306015217165722
    vertex 77.649923165 -25.83434117945542 18.306015217165722
    vertex 76.26810990059184 -30.133480133111703 18.306015217165722
  endloop
endfacet
facet normal 0.0 0.0 -1.0
  outer loop
    vertex 76.26810990059184 -30.133480133111703 18.306015217165722
    vertex 77.649923165 -25.83434117945542 18.306015217165722
    vertex 76.28840987797363 -30.212543324974696 18.306015217165722
  endloop
endfacet
facet normal 0.0 0.0 -1.0
  outer loop
    vertex 76.28840987797363 -30.212543324974696 18.306015217165722
    vertex 77.649923165 -25.83434117945542 18.306015217165722
    vertex 76.29864053847837 -30.293527341761365 18.306015217165722
  endloop
endfacet
facet normal 0.0 0.0 -1.0
  outer loop
    vertex 76.29864053847837 -30.293527341761365 18.306015217165722
    vertex 77.649923165 -25.83434117945542 18.306015217165722
    vertex 76.29864053847837 -30.375155017149474 18.306015217165722
  endloop
endfacet
facet normal 0.0 0.0 -1.0
  outer loop
    vertex 65.999923165 -33.83434117945542 18.306015217165722
    vertex 75.14908955719572 -30.74866677279207 18.306015217165722
    vertex 77.649923165 -33.83434117945542 18.306015217165722
  endloop
endfacet
facet normal 0.0 0.0 -1.0
  outer loop
    vertex 75.14908955719572 -30.74866677279207 18.306015217165722
    vertex 65.999923165 -33.83434117945542 18.306015217165722
    vertex 75.10111001342368 -30.682628596191766 18.306015217165722
  endloop
endfacet
facet normal 0.0 0.0 -1.0
  outer loop
    vertex 75.10111001342368 -30.682628596191766 18.306015217165722
    vertex 65.999923165 -33.83434117945542 18.306015217165722
    vertex 75.06178558089708 -30.61109771897271 18.306015217165722
  endloop
endfacet
facet normal 0.0 0.0 -1.0
  outer loop
    vertex 75.06178558089708 -30.61109771897271 18.306015217165722
    vertex 65.999923165 -33.83434117945542 18.306015217165722
    vertex 75.03173642940814 -30.535202225799132 18.306015217165722
  endloop
endfacet
facet normal 0.0 0.0 -1.0
  outer loop
    vertex 75.03173642940814 -30.535202225799132 18.306015217165722
    vertex 65.999923165 -33.83434117945542 18.306015217165722
    vertex 75.01143645202635 -30.45613903393614 18.306015217165722
  endloop
endfacet
facet normal 0.0 0.0 -1.0
  outer loop
    vertex 75.01143645202635 -30.45613903393614 18.306015217165722
    vertex 65.999923165 -33.83434117945542 18.306015217165722
    vertex 75.00120579152161 -30.375155017149474 18.306015217165722
  endloop
endfacet
facet normal 0.0 0.0 -1.0
  outer loop
    vertex 75.00120579152161 -30.375155017149474 18.306015217165722
    vertex 65.999923165 -33.83434117945542 18.306015217165722
    vertex 75.00120579152161 -30.293527341761365 18.306015217165722
  endloop
endfacet
facet normal 0.0 0.0 -1.0
  outer loop
    vertex 77.649923165 -33.83434117945542 18.306015217165722
    vertex 75.14908955719572 -30.74866677279207 18.306015217165722
    vertex 75.20496754614635 -30.808170787279337 18.306015217165722
  endloop
endfacet
facet normal 0.0 0.0 -1.0
  outer loop
    vertex 77.649923165 -33.83434117945542 18.306015217165722
    vertex 75.20496754614635 -30.808170787279337 18.306015217165722
    vertex 75.26786275100989 -30.86020222579913 18.306015217165722
  endloop
endfacet
facet normal 0.0 0.0 -1.0
  outer loop
    vertex 77.649923165 -33.83434117945542 18.306015217165722
    vertex 75.26786275100989 -30.86020222579913 18.306015217165722
    vertex 75.33678327683387 -30.90394052148393 18.306015217165722
  endloop
endfacet
facet normal 0.0 0.0 -1.0
  outer loop
    vertex 77.649923165 -33.83434117945542 18.306015217165722
    vertex 75.33678327683387 -30.90394052148393 18.306015217165722
    vertex 75.41064220575495 -30.938695895282784 18.306015217165722
  endloop
endfacet
facet normal 0.0 0.0 -1.0
  outer loop
    vertex 77.649923165 -33.83434117945542 18.306015217165722
    vertex 75.41064220575495 -30.938695895282784 18.306015217165722
    vertex 75.48827473834284 -30.963920234189025 18.306015217165722
  endloop
endfacet
facet normal 0.0 0.0 -1.0
  outer loop
    vertex 77.649923165 -33.83434117945542 18.306015217165722
    vertex 75.48827473834284 -30.963920234189025 18.306015217165722
    vertex 75.56845656318319 -30.979215735309825 18.306015217165722
  endloop
endfacet
facet normal 0.0 0.0 -1.0
  outer loop
    vertex 77.649923165 -33.83434117945542 18.306015217165722
    vertex 75.56845656318319 -30.979215735309825 18.306015217165722
    vertex 75.64992316499999 -30.984341179455416 18.306015217165722
  endloop
endfacet
facet normal 0.0 0.0 -1.0
  outer loop
    vertex 77.649923165 -33.83434117945542 18.306015217165722
    vertex 75.64992316499999 -30.984341179455416 18.306015217165722
    vertex 75.73138976681679 -30.979215735309825 18.306015217165722
  endloop
endfacet
facet normal 0.0 0.0 -1.0
  outer loop
    vertex 77.649923165 -33.83434117945542 18.306015217165722
    vertex 75.73138976681679 -30.979215735309825 18.306015217165722
    vertex 75.81157159165714 -30.963920234189025 18.306015217165722
  endloop
endfacet
facet normal 0.0 0.0 -1.0
  outer loop
    vertex 77.649923165 -33.83434117945542 18.306015217165722
    vertex 75.81157159165714 -30.963920234189025 18.306015217165722
    vertex 75.88920412424503 -30.938695895282784 18.306015217165722
  endloop
endfacet
facet normal 0.0 0.0 -1.0
  outer loop
    vertex 77.649923165 -33.83434117945542 18.306015217165722
    vertex 75.88920412424503 -30.938695895282784 18.306015217165722
    vertex 75.96306305316611 -30.90394052148393 18.306015217165722
  endloop
endfacet
facet normal 0.0 0.0 -1.0
  outer loop
    vertex 77.649923165 -33.83434117945542 18.306015217165722
    vertex 75.96306305316611 -30.90394052148393 18.306015217165722
    vertex 76.0319835789901 -30.86020222579913 18.306015217165722
  endloop
endfacet
facet normal 0.0 0.0 -1.0
  outer loop
    vertex 77.649923165 -33.83434117945542 18.306015217165722
    vertex 76.0319835789901 -30.86020222579913 18.306015217165722
    vertex 76.09487878385363 -30.808170787279337 18.306015217165722
  endloop
endfacet
facet normal 0.0 0.0 -1.0
  outer loop
    vertex 77.649923165 -33.83434117945542 18.306015217165722
    vertex 76.09487878385363 -30.808170787279337 18.306015217165722
    vertex 76.15075677280426 -30.74866677279207 18.306015217165722
  endloop
endfacet
facet normal 0.0 0.0 -1.0
  outer loop
    vertex 77.649923165 -33.83434117945542 18.306015217165722
    vertex 76.15075677280426 -30.74866677279207 18.306015217165722
    vertex 76.1987363165763 -30.682628596191766 18.306015217165722
  endloop
endfacet
facet normal 0.0 0.0 -1.0
  outer loop
    vertex 77.649923165 -33.83434117945542 18.306015217165722
    vertex 76.1987363165763 -30.682628596191766 18.306015217165722
    vertex 76.2380607491029 -30.61109771897271 18.306015217165722
  endloop
endfacet
facet normal 0.0 0.0 -1.0
  outer loop
    vertex 77.649923165 -33.83434117945542 18.306015217165722
    vertex 76.2380607491029 -30.61109771897271 18.306015217165722
    vertex 76.26810990059184 -30.535202225799132 18.306015217165722
  endloop
endfacet
facet normal 0.0 0.0 -1.0
  outer loop
    vertex 77.649923165 -33.83434117945542 18.306015217165722
    vertex 76.26810990059184 -30.535202225799132 18.306015217165722
    vertex 76.28840987797363 -30.45613903393614 18.306015217165722
  endloop
endfacet
facet normal 0.0 0.0 -1.0
  outer loop
    vertex 77.649923165 -33.83434117945542 18.306015217165722
    vertex 76.28840987797363 -30.45613903393614 18.306015217165722
    vertex 76.29864053847837 -30.375155017149474 18.306015217165722
  endloop
endfacet
facet normal 0.0 0.0 -1.0
  outer loop
    vertex 77.649923165 -33.83434117945542 18.306015217165722
    vertex 76.29864053847837 -30.375155017149474 18.306015217165722
    vertex 77.649923165 -25.83434117945542 18.306015217165722
  endloop
endfacet
facet normal 0.0 0.0 -1.0
  outer loop
    vertex 64.899923165 -29.834341179455425 18.306015217165722
    vertex 62.549923165 -29.834341179455425 18.306015217165722
    vertex 64.899923165 -27.834341179455425 18.306015217165722
  endloop
endfacet
facet normal -1.0 0.0 0.0
  outer loop
    vertex 62.549923165 -25.83434117945542 21.306015217165722
    vertex 62.549923165 -29.834341179455425 18.306015217165722
    vertex 62.549923165 -29.834341179455425 21.306015217165722
  endloop
endfacet
facet normal -1.0 0.0 0.0
  outer loop
    vertex 62.549923165 -29.834341179455425 18.306015217165722
    vertex 62.549923165 -25.83434117945542 21.306015217165722
    vertex 62.549923165 -25.83434117945542 18.306015217165722
  endloop
endfacet
endsolid Motorhalter
